<svg width="200" height="198" viewBox="0 0 200 198" fill="none" xmlns="http://www.w3.org/2000/svg">
<path d="M65.47 94.83C60.36 92.1 57.22 95.89 54.12 99.33C52.33 98.13 50.32 97.45 48.12 98.33C44.78 99.73 43.29 104.46 41.75 107.33C40.21 110.2 44.57 112.7 46.07 109.85C47.4 107.34 49.14 101.26 52.6 104.42C53.0752 104.878 53.7097 105.134 54.37 105.134C55.0302 105.134 55.6647 104.878 56.14 104.42C57.53 103.02 60.53 97.78 62.94 99.08C65.78 100.67 68.31 96.35 65.47 94.83Z" fill="#48D3E9"/>
<path d="M119.42 9.41C117.42 7.02 114.55 6.81 111.58 6.46C106.753 5.76207 101.866 5.57437 97 5.9C89.55 6.62 82.41 9.59 77.85 15.75C75.9273 18.2742 74.7061 21.2618 74.31 24.41C74.2382 26.0005 74.2716 27.5939 74.41 29.18C74.41 31.81 74.2 31.09 72.09 31.42C70.7538 31.635 69.4971 32.1957 68.4445 33.0465C67.392 33.8973 66.5803 35.0086 66.09 36.27C65.21 38.16 64.97 40.27 63.75 41.99C63.373 42.518 62.9368 43.0011 62.45 43.43C62.2541 43.1529 61.9986 42.9233 61.7023 42.758C61.4059 42.5927 61.0763 42.496 60.7376 42.4749C60.399 42.4538 60.0599 42.5088 59.7453 42.6361C59.4308 42.7633 59.1487 42.9594 58.92 43.21C50.42 41.03 40.75 40.05 33.85 46.53C26.51 53.43 27.85 63.95 31.48 72.36L30.2 72.51C29.7782 71.7319 29.1025 71.1218 28.2855 70.7815C27.4684 70.4412 26.5594 70.3913 25.71 70.64C23.57 71.24 22.23 73.48 21.2 75.73C20.0201 76.9103 19.3428 78.5014 19.31 80.17C16.7578 80.1292 14.253 80.8608 12.124 82.2688C9.99501 83.6768 8.34136 85.6955 7.37998 88.06C7.20998 88.45 7.07998 88.83 6.93998 89.22C6.5869 89.1239 6.21617 89.1124 5.85779 89.1862C5.49941 89.2601 5.16347 89.4173 4.87717 89.6452C4.59087 89.8731 4.36227 90.1652 4.20987 90.4978C4.05747 90.8305 3.98557 91.1944 3.99998 91.56C3.93721 94.9993 4.47181 98.4235 5.57998 101.68C6.37749 105.192 7.52315 108.615 8.99998 111.9C9.87956 114.062 11.3444 115.935 13.23 117.31C15.04 118.66 15.72 120.13 17.33 121.66C18.8944 122.929 20.7115 123.849 22.66 124.36C26.13 125.57 28.75 127.31 31.98 128.99C36.1 131.14 41.09 131.53 44.41 127.82C46.55 125.43 43.02 121.88 40.87 124.28C37.31 128.28 31.5 122.49 28.08 120.98C26.75 120.39 25.35 119.98 23.98 119.54C21.48 118.63 20.98 117.54 19.37 115.54C18.7163 114.738 17.9237 114.061 17.03 113.54C16.1546 112.994 15.3659 112.32 14.69 111.54C15.058 111.144 15.3016 110.648 15.3905 110.115C15.4794 109.582 15.4096 109.034 15.19 108.54C13.11 104.1 10.81 99.34 11.09 94.3C11.41 88.69 15.58 83.42 21.62 85.77C24.15 86.77 25.46 83.48 24.03 81.77L25.58 78.63C27.79 77.27 32.29 77.35 34 77.15C34.404 77.099 34.7907 76.9553 35.13 76.73C37.13 77.47 39.75 75.41 38.24 73.26C37.34 71.97 37.01 68.12 36.53 66.51C35.35 62.65 35.25 59.13 38 56C42.68 50.65 50.47 50.8 57 51.19C57.4832 51.2275 57.966 51.1121 58.38 50.86C58.6611 50.9667 58.9593 51.0209 59.26 51.02L64 50.93C64.4526 50.9009 64.89 50.7557 65.2702 50.5084C65.6503 50.2611 65.9603 49.92 66.1704 49.518C66.3804 49.1161 66.4833 48.6668 66.4692 48.2135C66.4552 47.7602 66.3245 47.3182 66.09 46.93C66.6322 46.441 67.1308 45.9057 67.58 45.33C69.03 43.44 69.16 41.1 70.33 39.18C72.54 35.54 75.87 37.48 78.14 34.65C79.39 33.11 79.4 31.05 79.38 29.17C79.33 25.56 79.16 22.87 81.17 19.66C83.2035 16.5463 86.1369 14.1256 89.58 12.72C93.6754 11.1587 98.0537 10.4773 102.43 10.72C105.77 10.78 113.65 10.34 115.89 12.95C118 15.39 121.5 11.84 119.42 9.41ZM38.55 49.18C38.8 49 39.03 48.82 39.3 48.65C41.4804 47.3545 43.9464 46.6161 46.48 46.5C43.6945 46.8988 41.0063 47.8073 38.55 49.18V49.18Z" fill="#48D3E9"/>
<path d="M82.62 63.17C81.25 66.04 78.26 64.17 76.2 65.92C74.14 67.67 73.85 73.06 70.2 69.16C68.79 67.66 66.68 68.62 66.02 70.27L63.57 76.4C62.37 79.4 67.21 80.68 68.39 77.73L69.59 74.73C71.0386 75.3727 72.6573 75.5251 74.2005 75.1642C75.7436 74.8032 77.1267 73.9486 78.14 72.73C78.68 72.1 79.05 70.44 79.61 70C79.9 69.77 81.18 70 81.61 69.93C82.7637 69.6937 83.8444 69.1858 84.7626 68.4484C85.6809 67.7111 86.4101 66.7655 86.89 65.69C88.32 62.81 84 60.27 82.62 63.17Z" fill="#48D3E9"/>
<path d="M89.1 72.82C88.5824 73.0846 88.0784 73.3749 87.59 73.69C87.1305 73.2347 86.5145 72.9718 85.8678 72.9551C85.2211 72.9384 84.5924 73.169 84.11 73.6C82.4445 75.0776 81.0972 76.8786 80.1499 78.8935C79.2027 80.9083 78.6753 83.0949 78.6 85.32C78.46 88.54 83.46 88.53 83.6 85.32C83.6407 84.4248 83.7918 83.5381 84.05 82.68C84.3715 82.7102 84.6955 82.6643 84.996 82.5462C85.2966 82.4281 85.5651 82.241 85.78 82C87.3406 79.9783 89.3367 78.3343 91.62 77.19C94.5 75.69 92 71.37 89.1 72.82Z" fill="#48D3E9"/>
<path d="M133.28 72.25C129.03 74.43 125.21 70.25 123.02 67.1C121.19 64.49 116.85 66.98 118.7 69.63C122.61 75.22 128.81 80.15 135.8 76.57C138.67 75.1 136.14 70.79 133.28 72.25Z" fill="#48D3E9"/>
<path d="M159.79 94.07L157.24 93.52C156.741 93.4137 156.223 93.4513 155.745 93.6284C155.267 93.8054 154.849 94.1146 154.54 94.52C152.92 93.1067 150.921 92.1993 148.79 91.91C147.414 91.8123 146.04 92.133 144.85 92.83C143.723 91.2922 142.259 90.0318 140.572 89.1446C138.884 88.2574 137.016 87.7668 135.11 87.71C131.9 87.53 131.91 92.53 135.11 92.71C136.69 92.7629 138.212 93.3221 139.451 94.3051C140.689 95.2881 141.579 96.6429 141.99 98.17C142.66 100.38 146.32 100.72 146.81 98.17C147.55 94.27 155.62 102.22 156.12 102.66C158.53 104.78 162.12 101.25 159.66 99.13L159.47 98.96C159.954 98.9082 160.41 98.7101 160.778 98.392C161.146 98.0739 161.409 97.6511 161.53 97.18C161.712 96.5369 161.63 95.8479 161.304 95.2647C160.978 94.6814 160.433 94.2517 159.79 94.07V94.07Z" fill="#48D3E9"/>
<path d="M154.63 114.06C154.155 113.602 153.52 113.346 152.86 113.346C152.2 113.346 151.565 113.602 151.09 114.06L148.75 116.32C148.518 116.552 148.333 116.828 148.207 117.132C148.082 117.436 148.017 117.761 148.017 118.09C148.017 118.419 148.082 118.744 148.207 119.048C148.333 119.352 148.518 119.628 148.75 119.86C148.982 120.092 149.258 120.277 149.562 120.403C149.866 120.528 150.191 120.593 150.52 120.593C150.849 120.593 151.174 120.528 151.478 120.403C151.782 120.277 152.058 120.092 152.29 119.86L154.63 117.6C155.091 117.126 155.348 116.491 155.348 115.83C155.348 115.169 155.091 114.534 154.63 114.06V114.06Z" fill="#48D3E9"/>
<path d="M129.12 154.84L116.78 156.52C116.78 154.78 116.71 153.12 116.78 151.84C116.902 145.241 116.568 138.642 115.78 132.09C118.455 123.133 118.676 113.622 116.42 104.55C116.264 104.028 115.947 103.569 115.514 103.239C115.081 102.908 114.554 102.723 114.01 102.71C113.01 102.59 112.12 102.5 111.17 102.4C110.504 102.065 109.738 101.991 109.02 102.19C100.096 101.417 91.1159 101.594 82.23 102.72C81.6322 102.784 81.0762 103.056 80.66 103.49C80.0323 103.516 79.4366 103.774 78.9878 104.213C78.539 104.653 78.269 105.243 78.23 105.87C77.9773 109.815 78.1922 113.776 78.87 117.67C78.9099 117.984 79.0206 118.285 79.1938 118.55C79.3671 118.815 79.5983 119.037 79.87 119.2C79.7833 126.113 79.69 133.023 79.59 139.93C79.5687 140.306 79.6418 140.681 79.8024 141.022C79.9631 141.362 80.2063 141.657 80.51 141.88C79.859 146.745 79.7016 151.663 80.04 156.56L79.82 157.01C76.2098 157.003 72.6045 156.745 69.03 156.24C67.03 155.95 64.91 157.88 66.2 159.91C67.3751 161.762 68.9807 163.303 70.88 164.4C70.9607 164.838 71.1654 165.244 71.47 165.57C75.873 170.151 80.5481 174.462 85.47 178.48C86.5153 181.2 88.236 183.609 90.47 185.48C90.7628 185.716 91.1017 185.889 91.465 185.987C91.8282 186.085 92.208 186.107 92.58 186.05C94.34 187.79 96.16 189.46 98.06 191.05C99.42 192.19 101.77 191.91 102.24 189.94C102.32 189.61 102.42 189.28 102.51 188.94C112.65 179.373 122.357 169.373 131.63 158.94C133.33 157 131.54 154.51 129.12 154.84ZM122.57 161.48C122.491 161.233 122.38 160.998 122.24 160.78L123.34 160.63L122.57 161.48Z" fill="#48D3E9"/>
<path d="M177.58 74.44C184.13 71.25 192.98 74.31 196.16 80.85C199.34 87.39 196.29 96.25 189.74 99.43C190.949 100.028 191.934 100.997 192.551 102.197C193.168 103.396 193.383 104.761 193.166 106.092C192.949 107.423 192.311 108.649 191.345 109.59C190.379 110.532 189.136 111.138 187.8 111.32C188.674 112.19 189.294 113.283 189.59 114.48C189.886 115.677 189.848 116.933 189.48 118.11C188.708 120.432 187.326 122.504 185.48 124.11C182.14 127.29 176.68 129.59 173.1 126.68" stroke="black" stroke-width="5" stroke-linejoin="bevel"/>
<path d="M69.05 126.76L53.86 128.46C51.07 128.77 47.21 128.26 47 125.46C44.6541 127.905 41.6466 129.614 38.3452 130.378C35.0438 131.141 31.5914 130.927 28.41 129.76C26.9428 129.152 25.5195 128.444 24.15 127.64L15.43 122.78C12.76 121.3 9.73997 119.25 9.72997 116.19C9.85415 115.249 9.89431 114.298 9.84997 113.35C9.58572 112.449 9.11687 111.62 8.47997 110.93C3.99997 105.16 1.28997 97.55 3.16997 90.51C5.04997 83.47 12.66 77.87 19.67 79.87C18.865 78.2851 18.6866 76.4552 19.1703 74.7447C19.654 73.0342 20.7643 71.5687 22.28 70.64C23.8588 69.8229 25.6874 69.6306 27.4016 70.1013C29.1159 70.572 30.5898 71.6712 31.53 73.18C29.82 68.89 28.29 64.47 28.01 59.87C27.73 55.27 28.85 50.42 31.89 46.96C35.56 42.79 41.36 41.26 46.89 40.63C50.1962 40.0994 53.5774 40.2767 56.81 41.15C59.4689 42.0126 61.8206 43.6278 63.58 45.8C61.79 42.88 62.58 38.02 64.58 35.26C65.6167 33.8898 67.0266 32.8478 68.6407 32.2589C70.2548 31.67 72.0045 31.5593 73.68 31.94C73.34 25.38 73.32 18.31 77.04 12.88C82 5.68 91.69 3.82 100.4 3.26C104.33 3.01 108.4 2.92 112.06 4.34C115.72 5.76 118.95 9.01 119.17 12.94C119.839 11.4833 120.989 10.3005 122.426 9.58944C123.862 8.87835 125.5 8.68202 127.064 9.03327C128.628 9.38452 130.025 10.2621 131.019 11.5192C132.014 12.7764 132.548 14.3369 132.53 15.94C138.88 15.72 145.53 16.26 151.14 19.21C159.31 23.5 163.14 34.5 159.45 42.94C163.21 41.23 167.97 43.51 169.85 47.2C171.73 50.89 171.16 55.44 169.34 59.2C167.52 62.96 164.62 65.96 161.71 68.91C164.538 67.635 167.738 67.4526 170.693 68.3981C173.648 69.3436 176.147 71.3499 177.71 74.03" stroke="black" stroke-width="5" stroke-linejoin="bevel"/>
<path d="M118.13 127C118.13 128.63 119.95 129.58 121.52 130C124.997 131.004 128.615 131.426 132.23 131.25C134.35 131.14 136.82 130.56 137.63 128.6C140.97 132.91 148.57 132.71 151.68 128.24C154.402 129.93 157.518 130.878 160.72 130.99C163.921 131.102 167.097 130.375 169.93 128.88C170.158 128.793 170.364 128.659 170.537 128.487C170.709 128.315 170.843 128.108 170.93 127.88C171.04 127.4 170.47 126.88 170.08 127.14" stroke="black" stroke-width="5" stroke-linejoin="bevel"/>
<path d="M68.34 126.93C68.13 128.48 70.09 129.33 71.64 129.51C74.0786 129.779 76.543 129.702 78.96 129.28L77.53 129.23C78.53 138.08 80 147.41 79.53 156.31C73.013 155.362 66.406 155.198 59.85 155.82C72.85 169.41 84.85 182.66 98.47 195.57C101.967 191.544 105.718 187.747 109.7 184.2C119.534 175.079 128.682 165.246 137.07 154.78C130.75 155.12 124.417 155.287 118.07 155.28C117.31 146.278 117.1 137.238 117.44 128.21L117.32 130.76" stroke="black" stroke-width="5" stroke-linejoin="bevel"/>
<path d="M78.28 128.48L79 102.2C89.8866 102.26 100.773 102.013 111.66 101.46C113.25 101.38 114.99 101.33 116.25 102.31C117.95 103.62 118 106.12 117.89 108.31L116.78 131.31" stroke="black" stroke-width="2" stroke-linejoin="bevel"/>
<path d="M52 78.07C54.79 78.58 57.66 79.07 60.45 78.57C63.24 78.07 66 76.23 66.78 73.5C67.22 71.96 67.43 69.8 69.02 69.61C69.4868 69.6025 69.9511 69.6805 70.39 69.84C71.9203 70.1749 73.5192 69.9767 74.9215 69.2783C76.3238 68.5799 77.4452 67.4232 78.1 66C78.46 65.18 78.7 64.21 79.47 63.74C80.0387 63.4828 80.6558 63.3498 81.28 63.35C84.59 63.02 87.42 60.66 89.16 57.83C90.9 55 91.74 51.72 92.55 48.5" stroke="black" stroke-width="2" stroke-linejoin="bevel"/>
<path d="M121.09 67C121.229 68.3057 121.732 69.546 122.542 70.5794C123.352 71.6127 124.436 72.3974 125.671 72.8437C126.906 73.2901 128.241 73.3802 129.525 73.1037C130.809 72.8272 131.988 72.1952 132.93 71.28C134.1 72.4611 135.54 73.3397 137.125 73.8397C138.711 74.3398 140.394 74.4462 142.03 74.15" stroke="black" stroke-width="2" stroke-linejoin="bevel"/>
<path d="M161.75 97C158.87 94.35 155.38 92.15 151.49 91.67C147.6 91.19 143.3 92.74 141.33 96.12C140.387 94.1067 138.952 92.3639 137.157 91.0528C135.362 89.7418 133.265 88.905 131.06 88.62" stroke="black" stroke-width="2" stroke-linejoin="bevel"/>
<path d="M43.51 111.16C42.8999 109.433 42.7637 107.574 43.1154 105.777C43.4671 103.98 44.294 102.309 45.51 100.94C46.6176 99.6272 48.1914 98.7955 49.9 98.62C50.7456 98.559 51.5887 98.7683 52.3077 99.2176C53.0267 99.667 53.5842 100.333 53.9 101.12C54.46 98.43 55.57 95.63 57.9 94.12C60.23 92.61 63.9 93.3 64.84 95.9L66.12 96.04" stroke="black" stroke-width="2" stroke-linejoin="bevel"/>
<path d="M114.14 41.91C114.21 41.576 114.345 41.2592 114.538 40.9777C114.731 40.6962 114.978 40.4556 115.264 40.2698C115.55 40.0839 115.871 39.9564 116.206 39.8947C116.542 39.833 116.886 39.8382 117.22 39.91" stroke="black" stroke-width="2" stroke-linejoin="bevel"/>
<path d="M102 79.64C100.78 77.97 100.14 75.95 99 74.23C97.86 72.51 95.86 71.06 93.84 71.5C91.32 72.05 90.29 75.02 89.7 77.5C89.92 76.33 88.7 75.28 87.5 75.31C86.9104 75.378 86.3408 75.5645 85.8252 75.8584C85.3097 76.1523 84.8589 76.5474 84.5 77.02C82.8741 78.8857 81.9757 81.2753 81.97 83.75" stroke="black" stroke-width="2" stroke-linejoin="bevel"/>
<path d="M115.21 90.91L118.64 93.65" stroke="black" stroke-width="2" stroke-linejoin="bevel"/>
<path d="M150.48 116C150.439 116.131 150.435 116.27 150.467 116.403C150.5 116.536 150.568 116.658 150.665 116.755C150.762 116.852 150.884 116.92 151.017 116.953C151.15 116.985 151.289 116.981 151.42 116.94" stroke="black" stroke-width="2" stroke-linejoin="bevel"/>
<path d="M170.87 109.28C171.303 109.417 171.762 109.45 172.21 109.377C172.658 109.304 173.083 109.127 173.45 108.86" stroke="black" stroke-width="2" stroke-linejoin="bevel"/>
<path d="M172.9 89.91L173.9 87.36" stroke="black" stroke-width="2" stroke-linejoin="bevel"/>
<path d="M92.21 28.64V27.64" stroke="black" stroke-width="2" stroke-linejoin="bevel"/>
<path d="M72.81 54.68V51.11" stroke="black" stroke-width="2" stroke-linejoin="bevel"/>
<path d="M39.11 75.62H37.58" stroke="black" stroke-width="2" stroke-linejoin="bevel"/>
<path d="M29.92 98.59L27.36 98.08" stroke="black" stroke-width="2" stroke-linejoin="bevel"/>
<path d="M33.49 117V119" stroke="black" stroke-width="2" stroke-linejoin="bevel"/>
<path d="M96.81 115.48C97.473 115.47 98.1255 115.647 98.693 115.99C99.2605 116.333 99.7203 116.828 100.02 117.42" stroke="black" stroke-width="2" stroke-linejoin="bevel"/>
<path d="M92.11 136.9C92.4507 142.555 93.2095 148.177 94.38 153.72" stroke="black" stroke-width="2" stroke-linejoin="bevel"/>
<path d="M99.36 136.38V168.55" stroke="black" stroke-width="2" stroke-linejoin="bevel"/>
<path d="M110.59 170.09C110.624 170.189 110.638 170.294 110.631 170.398C110.623 170.503 110.595 170.605 110.547 170.698C110.5 170.792 110.434 170.874 110.354 170.942C110.273 171.009 110.18 171.059 110.08 171.09" stroke="black" stroke-width="2" stroke-linejoin="bevel"/>
<path d="M90.59 174.73C90.6533 174.894 90.679 175.071 90.6652 175.247C90.6513 175.422 90.5984 175.592 90.5101 175.745C90.4219 175.897 90.3007 176.028 90.1553 176.128C90.0099 176.227 89.8441 176.293 89.67 176.32" stroke="black" stroke-width="2" stroke-linejoin="bevel"/>
<path d="M137.87 36.82C138.433 36.4462 139.113 36.2924 139.782 36.3882C140.45 36.4839 141.06 36.8224 141.495 37.339C141.931 37.8557 142.16 38.5145 142.141 39.1896C142.121 39.8648 141.854 40.5092 141.39 41" stroke="black" stroke-width="2" stroke-linejoin="bevel"/>
<path d="M137.66 53.42C138.265 53.3168 138.888 53.4084 139.438 53.6815C139.988 53.9547 140.437 54.3953 140.72 54.94" stroke="black" stroke-width="2" stroke-linejoin="bevel"/>
</svg>
